# xmcd
#
# Track frame offsets: 
#        150
#        13024
#        29343
#        44186
#        59331
#        71927
#        87266
#        104322
#        122637
#        134933
#        147615
#        163387
#        176593
#        191496
#        205809
#
# Disc length: 2967 seconds
#
# Revision: 13
# Processed by: cddbd v1.5.2PL0 Copyright (c) Steve Scherf et al.
# Submitted via: ExactAudioCopy v0.99pb4
#
DISCID=f10b950f
DTITLE=Annett Louisan - Unausgesprochen
DYEAR=2005
DGENRE=Jazz
TTITLE0=Das große Erwachen (...und jetzt...)
TTITLE1=Torsten Schmidt
TTITLE2=Chancenlos
TTITLE3=Gedacht ich sage Nein
TTITLE4=Eve
TTITLE5=Läuft alles perfekt
TTITLE6=Wo ist das Problem?
TTITLE7=Er gehörte mal mir
TTITLE8=Die Lösung
TTITLE9=Der den ich will
TTITLE10=Vielleicht
TTITLE11=Widder wider Willen
TTITLE12=Beerdigung
TTITLE13=Ausgesprochen Unausgesprochen
TTITLE14=Was hast Du vor?
EXTD=YEAR: 2005
EXTT0=
EXTT1=
EXTT2=
EXTT3=
EXTT4=
EXTT5=
EXTT6=
EXTT7=
EXTT8=
EXTT9=
EXTT10=
EXTT11=
EXTT12=
EXTT13=
EXTT14=
PLAYORDER=
